<svg width="19" height="16" viewBox="0 0 19 16" fill="none" xmlns="http://www.w3.org/2000/svg">
<path d="M4.17228 11.8468H14.0096L14.0097 9.07175C14.0097 6.23911 11.6174 3.9617 8.74657 4.15309C6.1246 4.32531 4.15327 6.62192 4.15327 9.244L4.15314 11.8469L4.17228 11.8468ZM5.97135 9.07175C5.97135 7.34933 7.36845 5.9521 9.091 5.9521C9.41635 5.9521 9.68427 6.22003 9.68427 6.54536C9.68427 6.87069 9.41634 7.13863 9.091 7.13863C8.03834 7.13863 7.17713 7.99984 7.17713 9.05251V10.0285C7.17713 10.3539 6.90919 10.6218 6.58386 10.6218C6.25853 10.6218 5.99059 10.3539 5.99059 10.0285V9.07175H5.97135Z" fill="white"/>
<path d="M9.09095 2.77505C9.41629 2.77505 9.68422 2.50712 9.68422 2.18178V0.593267C9.68422 0.267926 9.41628 0 9.09095 0C8.76562 0 8.49768 0.267936 8.49768 0.593267V2.18178C8.49768 2.50713 8.76562 2.77505 9.09095 2.77505Z" fill="white"/>
<path d="M3.78953 4.61241C3.90434 4.72722 4.05747 4.78463 4.21058 4.78463C4.3637 4.78463 4.51683 4.72722 4.63164 4.61241C4.86126 4.38279 4.86126 3.9999 4.63164 3.7512L3.50248 2.62205C3.27286 2.39242 2.88997 2.39242 2.64127 2.62205C2.41165 2.85167 2.41165 3.23456 2.64127 3.48326L3.78953 4.61241Z" fill="white"/>
<path d="M2.79429 9.07167C2.79429 8.74633 2.52636 8.4784 2.20103 8.4784L0.593267 8.47827C0.267926 8.47827 0 8.74621 0 9.07154C0 9.39687 0.267936 9.66481 0.593267 9.66481L2.20089 9.66494C2.52636 9.66494 2.79429 9.397 2.79429 9.07167Z" fill="white"/>
<path d="M17.5885 8.45923H15.9809C15.6556 8.45923 15.3876 8.72716 15.3876 9.0525C15.3876 9.37783 15.6556 9.64576 15.9809 9.64576H17.5694C17.8948 9.64576 18.1627 9.37783 18.1627 9.0525C18.1627 8.72716 17.9138 8.45923 17.5885 8.45923H17.5885Z" fill="white"/>
<path d="M13.9713 4.78463C14.1244 4.78463 14.2776 4.72722 14.3924 4.61241L15.5215 3.48326C15.7512 3.25363 15.7512 2.87075 15.5215 2.62205C15.2919 2.39242 14.909 2.39242 14.6603 2.62205L13.5503 3.7703C13.3206 3.99993 13.3206 4.38281 13.5503 4.63151C13.6651 4.72723 13.8182 4.78464 13.9713 4.78464V4.78463Z" fill="white"/>
<path d="M14.5646 13.0526H3.61727C2.81345 13.0526 2.14355 13.7033 2.14355 14.5263C2.14355 15.3302 2.79424 16.0001 3.61727 16.0001H14.5646C15.3685 16.0001 16.0384 15.3494 16.0384 14.5263C16.0384 13.7034 15.3875 13.0526 14.5646 13.0526Z" fill="white"/>
</svg>
