<svg width="18" height="22" viewBox="0 0 18 22" fill="none" xmlns="http://www.w3.org/2000/svg">
<path d="M9.00005 21C10.1001 21 11.0001 20.1 11.0001 19V18L7.00005 18.0005L7.00005 19C7.00005 19.5304 7.21077 20.0391 7.58584 20.4142C7.96091 20.7893 8.46962 21 9.00005 21ZM15.0001 15V10C15.0001 6.93 13.3601 4.36 10.5001 3.68V3C10.5001 2.17 9.83005 1.5 9.00005 1.5C8.17005 1.5 7.50005 2.17 7.50005 3V3.68C4.63005 4.36 3.00005 6.92 3.00005 10V15L1.71005 16.29C1.08005 16.92 1.52005 18 2.41005 18H15.5801C16.4701 18 16.9201 16.92 16.2901 16.29L15.0001 15Z" stroke="#1D1E25" stroke-width="1.5"/>
</svg>
